<svg width="50" height="50" viewBox="0 0 50 50" fill="none" xmlns="http://www.w3.org/2000/svg">
<path fill-rule="evenodd" clip-rule="evenodd" d="M25 45.6522C36.4059 45.6522 45.6522 36.4059 45.6522 25C45.6522 13.5941 36.4059 4.34783 25 4.34783C13.5941 4.34783 4.34783 13.5941 4.34783 25C4.34783 36.4059 13.5941 45.6522 25 45.6522ZM25 50C38.8071 50 50 38.8071 50 25C50 11.1929 38.8071 0 25 0C11.1929 0 0 11.1929 0 25C0 38.8071 11.1929 50 25 50Z" fill="#012030"/>
<path fill-rule="evenodd" clip-rule="evenodd" d="M36.9565 16.8478C37.8055 17.6968 37.8055 19.0732 36.9565 19.9222L23.3889 33.4898C22.3277 34.5511 20.6071 34.5511 19.5459 33.4898L13.587 27.5309C12.738 26.6819 12.738 25.3055 13.587 24.4565C14.4359 23.6076 15.8124 23.6076 16.6613 24.4565L20.6988 28.494C21.1233 28.9185 21.8115 28.9185 22.236 28.494L33.8821 16.8478C34.7311 15.9989 36.1076 15.9989 36.9565 16.8478Z" fill="#012030"/>
<path fill-rule="evenodd" clip-rule="evenodd" d="M25 45.6522C36.4059 45.6522 45.6522 36.4059 45.6522 25C45.6522 13.5941 36.4059 4.34783 25 4.34783C13.5941 4.34783 4.34783 13.5941 4.34783 25C4.34783 36.4059 13.5941 45.6522 25 45.6522ZM25 50C38.8071 50 50 38.8071 50 25C50 11.1929 38.8071 0 25 0C11.1929 0 0 11.1929 0 25C0 38.8071 11.1929 50 25 50Z" stroke="black"/>
<path fill-rule="evenodd" clip-rule="evenodd" d="M36.9565 16.8478C37.8055 17.6968 37.8055 19.0732 36.9565 19.9222L23.3889 33.4898C22.3277 34.5511 20.6071 34.5511 19.5459 33.4898L13.587 27.5309C12.738 26.6819 12.738 25.3055 13.587 24.4565C14.4359 23.6076 15.8124 23.6076 16.6613 24.4565L20.6988 28.494C21.1233 28.9185 21.8115 28.9185 22.236 28.494L33.8821 16.8478C34.7311 15.9989 36.1076 15.9989 36.9565 16.8478Z" stroke="black"/>
</svg>
