<svg width="50" height="50" viewBox="0 0 50 50" fill="none" xmlns="http://www.w3.org/2000/svg">
<g clip-path="url(#clip0_106_42)">
<path d="M50 25C50 38.8071 38.8071 50 25 50C11.1929 50 0 38.8071 0 25C0 11.1929 11.1929 0 25 0C38.8071 0 50 11.1929 50 25ZM2 25C2 37.7025 12.2975 48 25 48C37.7025 48 48 37.7025 48 25C48 12.2975 37.7025 2 25 2C12.2975 2 2 12.2975 2 25Z" fill="#D9D9D9"/>
<path d="M12.2433 13L39 37" stroke="#D9D9D9" stroke-linecap="round"/>
<path d="M11.5 37L38.2568 13" stroke="#D9D9D9" stroke-linecap="round"/>
</g>
<defs>
<clipPath id="clip0_106_42">
<rect width="50" height="50" fill="white"/>
</clipPath>
</defs>
</svg>
