<svg width="50" height="48" viewBox="0 0 50 48" fill="none" xmlns="http://www.w3.org/2000/svg">
<path d="M39.5 4.5H10.5C7.18629 4.5 4.5 7.18629 4.5 10.5V39.5C4.5 42.8137 7.18629 45.5 10.5 45.5H39.5C42.8137 45.5 45.5 42.8137 45.5 39.5V10.5C45.5 7.18629 42.8137 4.5 39.5 4.5Z" stroke="#D9D9D9" stroke-linecap="round"/>
<path d="M17.5 19.5H10.5V39.5H17.5V19.5Z" stroke="#D9D9D9" stroke-linecap="round"/>
<path d="M14.5 11.5H13.5C11.8431 11.5 10.5 12.8431 10.5 14.5C10.5 16.1569 11.8431 17.5 13.5 17.5H14.5C16.1569 17.5 17.5 16.1569 17.5 14.5C17.5 12.8431 16.1569 11.5 14.5 11.5Z" stroke="#D9D9D9" stroke-linecap="round"/>
<path d="M19.5 19.5V39.5H26.5V28C26.5 26.3432 27.8431 25 29.5 25C31.1569 25 32.5 26.3432 32.5 28V39.5H39C39 39.5 39.1505 29 39 23.5C38.8924 19.5698 28.8596 16.1223 26.6123 23.1172C26.5325 23.3657 26.5 23.8874 26.5 23.6264V19.5H19.5Z" stroke="#D9D9D9" stroke-linecap="round"/>
</svg>
