<svg width="50" height="50" viewBox="0 0 50 50" fill="none" xmlns="http://www.w3.org/2000/svg">
<g clip-path="url(#clip0_103_25)">
<g filter="url(#filter0_d_103_25)">
<path d="M4.79164 25C2.14529 25 -0.0463196 22.8355 0.457798 20.2376C0.776434 18.5956 1.25982 16.9857 1.90301 15.4329C3.15938 12.3998 5.00087 9.64379 7.32234 7.32232C9.64381 5.00086 12.3998 3.15937 15.4329 1.903C16.9857 1.25982 18.5956 0.776428 20.2376 0.457794C22.8355 -0.0463218 25 2.14529 25 4.79164V4.79164C25 7.43799 22.8047 9.51261 20.2851 10.3219C19.885 10.4505 19.4898 10.5955 19.1003 10.7568C17.2298 11.5316 15.5303 12.6672 14.0987 14.0987C12.6672 15.5303 11.5316 17.2298 10.7568 19.1003C10.5955 19.4897 10.4505 19.885 10.3219 20.2851C9.51262 22.8047 7.43799 25 4.79164 25V25Z" fill="#14668C"/>
</g>
</g>
<defs>
<filter id="filter0_d_103_25" x="-3.61487" y="0.385132" width="32.6149" height="32.6149" filterUnits="userSpaceOnUse" color-interpolation-filters="sRGB">
<feFlood flood-opacity="0" result="BackgroundImageFix"/>
<feColorMatrix in="SourceAlpha" type="matrix" values="0 0 0 0 0 0 0 0 0 0 0 0 0 0 0 0 0 0 127 0" result="hardAlpha"/>
<feOffset dy="4"/>
<feGaussianBlur stdDeviation="2"/>
<feComposite in2="hardAlpha" operator="out"/>
<feColorMatrix type="matrix" values="0 0 0 0 0 0 0 0 0 0 0 0 0 0 0 0 0 0 0.25 0"/>
<feBlend mode="normal" in2="BackgroundImageFix" result="effect1_dropShadow_103_25"/>
<feBlend mode="normal" in="SourceGraphic" in2="effect1_dropShadow_103_25" result="shape"/>
</filter>
<clipPath id="clip0_103_25">
<rect width="50" height="50" fill="white"/>
</clipPath>
</defs>
</svg>
