<svg width="50" height="50" viewBox="0 0 50 50" fill="none" xmlns="http://www.w3.org/2000/svg">
<path d="M28 25C28 32.1797 22.1797 38 15 38C7.8203 38 2 32.1797 2 25C2 17.8203 7.8203 12 15 12C22.1797 12 28 17.8203 28 25Z" fill="#D9D9D9"/>
<path d="M42 25.5C42 32.4036 39.0899 38 35.5 38C31.9101 38 29 32.4036 29 25.5C29 18.5964 31.9101 13 35.5 13C39.0899 13 42 18.5964 42 25.5Z" fill="#D9D9D9"/>
<path d="M48 25.5C48 31.8513 46.8807 37 45.5 37C44.1193 37 43 31.8513 43 25.5C43 19.1487 44.1193 14 45.5 14C46.8807 14 48 19.1487 48 25.5Z" fill="#D9D9D9"/>
</svg>
